# xmcd CD database file
#
# Track frame offsets:
#	150
#	18087
#	47270
#	65917
#	79222
#	95792
#	117612
#	139777
#	160597
#	182262
#	211225
#	228040
#	250402
#	266610
#	289400
#	309872
#
# Disc length: 4326 seconds
#
# Revision: 0
# Processed by: cddbd v1.5.2PL0 Copyright (c) Steve Scherf et al.
# Submitted via: CDex 1.51
#
DISCID=d810e410
DTITLE=Various Artist - Alligator Blues Sampler
DYEAR=1995
DGENRE=Blues
TTITLE0=Hound Dog Taylor And The Houserockers - Don't Blame Me
TTITLE1=Albert Collins With Robert Cray and Johnny Copeland - Blackjack
TTITLE2=Albert Collins - I Ain't Drunk
TTITLE3=Koko Taylor - Don't Put Your Hands On Me
TTITLE4=Billy Boy Arnold - I Wish You Would
TTITLE5=Elvin Bishop - Stealin' Watermelons
TTITLE6=Professor Longhair - It's My Fault, Darling
TTITLE7=Katie Webster - I'm Bad
TTITLE8=Clarence "Gatemouth" Brown - Got My Mojo Working
TTITLE9=James Cotton, Junior Wells, Carey Bell and Billy Branch - Down Home Blues
TTITLE10=Carey Bell - Let Me Stir In Your Pot
TTITLE11=Charlie Musselwhite - Hear Me Talkin'
TTITLE12=Kenny Neal - Right Train, Wrong Track
TTITLE13=Lil' Ed And The Blues Imperials - Older Woman
TTITLE14=Lonnie Mack - Satisfy Susie
TTITLE15=Son Seals - Bad Axe
EXTD=YEAR: 1995
EXTT0=
EXTT1=
EXTT2=
EXTT3=
EXTT4=
EXTT5=
EXTT6=
EXTT7=
EXTT8=
EXTT9=
EXTT10=
EXTT11=
EXTT12=
EXTT13=
EXTT14=
EXTT15=
PLAYORDER=
